<?xml version="1.0" encoding="utf-8"?>
<!-- Generator: Adobe Illustrator 16.0.0, SVG Export Plug-In . SVG Version: 6.00 Build 0)  -->
<!DOCTYPE svg PUBLIC "-//W3C//DTD SVG 1.1//EN" "http://www.w3.org/Graphics/SVG/1.1/DTD/svg11.dtd">
<svg version="1.1" id="Layer_1" xmlns:svgjs="http://svgjs.com/svgjs"
	 xmlns="http://www.w3.org/2000/svg" xmlns:xlink="http://www.w3.org/1999/xlink" x="0px" y="0px" width="23.75px"
	 height="31.625px" viewBox="20.25 15.75 23.75 31.625" enable-background="new 20.25 15.75 23.75 31.625" xml:space="preserve">
<g>
	<path fill="#007FFA" d="M42.566,27.017c0,2.344-1.645,6.208-4.887,11.482c-2.372,3.855-4.776,7.11-4.801,7.144l-0.705,0.952
		l-0.706-0.952c-0.023-0.033-2.43-3.288-4.801-7.144c-3.242-5.274-4.886-9.138-4.886-11.482c0-5.729,4.661-10.392,10.392-10.392
		C37.905,16.625,42.566,21.288,42.566,27.017z"/>
	<path fill="#87C4FF" d="M38.116,26.856c0,3.276-2.666,5.943-5.942,5.943c-3.277,0-5.942-2.667-5.942-5.943s2.666-5.943,5.942-5.943
		C35.45,20.914,38.116,23.58,38.116,26.856z"/>
	<path fill="#004D98" d="M42.566,27.017c0,2.344-1.645,6.208-4.887,11.482c-2.372,3.855-4.776,7.11-4.801,7.144l-0.705,0.952v-29.97
		C37.905,16.625,42.566,21.288,42.566,27.017z"/>
	<path fill="#6AA9E5" d="M38.116,26.856c0,3.276-2.666,5.943-5.942,5.943V20.914C35.45,20.914,38.116,23.58,38.116,26.856z"/>
</g>
</svg>
